<?xml version="1.0" encoding="utf-8"?>
<svg xmlns="http://www.w3.org/2000/svg" viewBox="0 0 512 512">
  <path d="M 248.152 451.696 Q 236.726 431.189 221.491 401.892 Q 206.257 372.595 191.169 341.394 Q 176.081 310.192 164.362 284.411 L 191.023 296.423 Q 181.062 297.888 168.171 298.767 Q 155.28 299.646 145.027 299.646 L 91.706 299.646 L 101.96 282.36 L 101.96 445.837 L 43.952 445.837 L 43.952 69.665 L 160.554 69.665 Q 199.226 69.665 227.497 80.212 Q 255.769 90.759 271.443 115.954 Q 287.116 141.15 287.116 185.681 Q 287.116 232.263 266.169 257.605 Q 245.222 282.946 210.359 291.735 L 216.218 273.864 Q 225.593 292.028 236.579 313.415 Q 247.566 334.802 259.577 357.36 Q 271.589 379.919 283.601 401.452 Q 295.612 422.985 306.452 441.442 Z M 101.96 262.146 L 87.898 251.892 L 139.753 251.892 Q 166.999 251.892 187.214 247.79 Q 207.429 243.689 218.562 229.48 Q 229.695 215.271 229.695 185.388 Q 229.695 158.142 221.638 143.347 Q 213.581 128.552 197.907 122.839 Q 182.234 117.126 159.968 117.126 L 87.898 117.126 L 101.96 100.134 Z" style="fill: rgb(51, 51, 51); text-wrap-mode: nowrap;"/>
</svg>